<svg width="56" height="65" viewBox="0 0 56 65" fill="none" xmlns="http://www.w3.org/2000/svg">
<path d="M56 45.5V3.5C56 1.875 54.625 0.5 53 0.5H12C5.375 0.5 0 5.875 0 12.5V52.5C0 59.125 5.375 64.5 12 64.5H53C54.625 64.5 56 63.25 56 61.5V59.5C56 58.625 55.5 57.75 54.875 57.25C54.25 55.25 54.25 49.75 54.875 47.875C55.5 47.375 56 46.5 56 45.5ZM16 17.25C16 16.875 16.25 16.5 16.75 16.5H43.25C43.625 16.5 44 16.875 44 17.25V19.75C44 20.25 43.625 20.5 43.25 20.5H16.75C16.25 20.5 16 20.25 16 19.75V17.25ZM16 25.25C16 24.875 16.25 24.5 16.75 24.5H43.25C43.625 24.5 44 24.875 44 25.25V27.75C44 28.25 43.625 28.5 43.25 28.5H16.75C16.25 28.5 16 28.25 16 27.75V25.25ZM47.625 56.5H12C9.75 56.5 8 54.75 8 52.5C8 50.375 9.75 48.5 12 48.5H47.625C47.375 50.75 47.375 54.375 47.625 56.5Z" fill="white"/>
</svg>
