<svg width="80" height="65" viewBox="0 0 80 65" fill="none" xmlns="http://www.w3.org/2000/svg">
<path d="M58 31.375L44 23V16.5H50C51 16.5 52 15.625 52 14.5V10.5C52 9.5 51 8.5 50 8.5H44V2.5C44 1.5 43 0.5 42 0.5H38C36.875 0.5 36 1.5 36 2.5V8.5H30C28.875 8.5 28 9.5 28 10.5V14.5C28 15.625 28.875 16.5 30 16.5H36V23L21.875 31.375C20.75 32.125 20 33.375 20 34.875V64.5H32V52.5C32 48.125 35.5 44.5 40 44.5C44.375 44.5 48 48.125 48 52.5V64.5H60V34.875C60 33.375 59.25 32.125 58 31.375ZM0 50V62.5C0 63.625 0.875 64.5 2 64.5H16V40.5L2.375 46.375C0.875 47 0 48.375 0 50ZM77.5 46.375L64 40.5V64.5H78C79 64.5 80 63.625 80 62.5V50C80 48.5 79 47 77.5 46.375Z" fill="white"/>
</svg>
