<svg width="73" height="66" viewBox="0 0 73 66" fill="none" xmlns="http://www.w3.org/2000/svg">
<path d="M34.375 32.875C35.25 33.75 36.625 33.75 37.5 32.875L51.125 18.625C55.125 14.5 54.875 7.625 50.5 3.75C46.625 0.375 40.875 1 37.375 4.75L36 6.125L34.5 4.75C31 1 25.25 0.375 21.5 3.75C17 7.625 16.75 14.5 20.75 18.625L34.375 32.875ZM70.625 42.625C69.125 41.25 66.875 41.375 65.25 42.625L53.75 51.75C52.375 53 50.5 53.5 48.75 53.5H34C32.875 53.5 32 52.625 32 51.5C32 50.5 32.875 49.5 34 49.5H43.75C45.75 49.5 47.625 48.25 47.875 46.25C48.25 43.75 46.375 41.5 44 41.5H24C20.625 41.5 17.25 42.75 14.625 44.875L8.875 49.5H2C0.875 49.5 0 50.5 0 51.5V63.5C0 64.625 0.875 65.5 2 65.5H46.5C48.375 65.5 50.125 65 51.5 63.75L70.5 48.625C72.375 47.125 72.5 44.25 70.625 42.625Z" fill="white"/>
</svg>
