<svg width="62" height="63" viewBox="0 0 62 63" fill="none" xmlns="http://www.w3.org/2000/svg">
<path d="M31 0.5C13.875 0.5 0 14.375 0 31.5C0 48.625 13.875 62.5 31 62.5C48.125 62.5 62 48.625 62 31.5C62 14.375 48.125 0.5 31 0.5ZM11.25 22.5C12.125 20.25 14.625 19.125 16.875 19.75L17.75 20L18 19.125C18.625 16.875 20.875 15.25 23.125 15.625C25.875 16 27.5 18.625 26.75 21.25L24.375 29.875C24.25 30.5 23.625 30.875 23 30.625L14.25 28.375C11.75 27.75 10.25 25 11.25 22.5ZM31 53.5C23.375 53.5 14.125 48.75 13 41.875C12.75 40.375 14.125 39.25 15.5 39.625C19.375 40.875 25 41.5 31 41.5C37 41.5 42.5 40.875 46.375 39.625C47.75 39.25 49.125 40.375 48.875 41.875C47.75 48.75 38.5 53.5 31 53.5ZM47.625 28.375L38.875 30.625C38.25 30.875 37.75 30.5 37.5 29.875L35.125 21.125C34.375 18.625 36 16 38.75 15.625C41 15.25 43.25 16.875 43.875 19.125L44.125 20L45 19.75C47.25 19.125 49.75 20.25 50.625 22.5C51.625 25 50.125 27.75 47.625 28.375Z" fill="white"/>
</svg>
