<svg width="63" height="63" viewBox="0 0 63 63" fill="none" xmlns="http://www.w3.org/2000/svg">
<path d="M31.43 0.5C14.305 0.5 0.430002 14.5 0.430002 31.5C0.430002 48.625 14.305 62.5 31.43 62.5C48.43 62.5 62.43 48.625 62.43 31.5C62.43 14.5 48.43 0.5 31.43 0.5ZM51.43 27.5V28.375C51.43 29.125 50.93 29.75 50.305 30.125L48.43 31C48.055 31.25 47.805 31.25 47.555 31.25C47.055 31.25 46.68 31.125 46.43 31L44.18 29.375C43.805 29.25 43.43 29.125 43.055 29.125C42.93 29.125 42.68 29.125 42.43 29.25H42.18C40.93 29.75 40.43 31.125 41.18 32.25L42.805 34.75C43.18 35.25 43.805 35.625 44.43 35.625H45.43C46.555 35.625 47.43 36.375 47.43 37.5V38.875C47.43 39.375 47.18 39.75 46.93 40.125L44.68 43.25C44.43 43.5 44.305 43.75 44.305 44L43.805 46.875C43.68 47.25 43.43 47.625 43.18 47.875C41.93 49 40.93 50.25 40.055 51.625L38.43 54C37.805 55 36.68 55.625 35.555 55.625C34.18 55.625 33.055 54.875 32.43 53.625C31.805 52.375 31.43 50.875 31.43 49.25V45.5C31.43 44.375 30.555 43.5 29.43 43.5H26.18C24.43 43.5 22.68 42.875 21.305 41.5C20.18 40.375 19.305 38.625 19.305 36.75V35C19.305 32.875 20.43 30.75 22.055 29.5L25.555 26.875C26.68 26.125 28.055 25.5 29.68 25.5H29.805C30.805 25.5 31.805 25.75 32.805 26.25L34.68 27.25C35.055 27.375 35.68 27.5 36.18 27.25L42.055 25.375C42.805 25.125 43.305 24.375 43.305 23.5C43.305 22.375 42.555 21.5 41.43 21.5H40.18C39.68 21.5 39.18 21.375 38.805 21L37.93 20.125C37.555 19.75 37.055 19.5 36.555 19.5H25.305C24.18 19.5 23.43 18.75 23.43 17.625V17.125C23.43 16.125 23.93 15.375 24.805 15.25L26.68 14.75C27.055 14.625 27.555 14.375 27.805 13.875L28.805 12.375C29.18 11.875 29.805 11.5 30.43 11.5H33.43C34.555 11.5 35.43 10.75 35.43 9.625V6.875C45.305 8.5 53.18 16 55.555 25.5H53.305C52.18 25.5 51.43 26.375 51.43 27.5Z" fill="#F9CA24"/>
</svg>
